<?xml version="1.0" standalone="no"?>
<!DOCTYPE svg PUBLIC "-//W3C//DTD SVG 20010904//EN"
 "http://www.w3.org/TR/2001/REC-SVG-20010904/DTD/svg10.dtd">
<svg version="1.0" xmlns="http://www.w3.org/2000/svg"
 width="700.000000pt" height="700.000000pt" viewBox="0 0 700.000000 700.000000"
 preserveAspectRatio="xMidYMid meet">
<metadata>
Created by potrace 1.11, written by Peter Selinger 2001-2013
</metadata>
<g transform="translate(0.000000,700.000000) scale(0.100000,-0.100000)"
fill="#000000" stroke="none">
<path d="M2080 5713 c-29 -32 -85 -92 -124 -133 -39 -42 -132 -140 -206 -219
-74 -78 -142 -151 -151 -162 -9 -11 -76 -82 -149 -159 -73 -77 -140 -148 -149
-159 -9 -10 -73 -79 -143 -152 -69 -74 -141 -150 -158 -169 -46 -50 -270 -288
-370 -394 -47 -50 -98 -105 -115 -122 -16 -18 -79 -85 -140 -149 -60 -65 -131
-141 -158 -169 -26 -28 -46 -56 -45 -62 2 -7 63 -75 137 -153 73 -77 141 -149
150 -160 14 -16 113 -122 291 -311 8 -8 51 -54 94 -100 44 -47 114 -121 155
-165 96 -102 328 -349 361 -385 14 -14 82 -87 152 -161 69 -74 136 -145 147
-158 17 -19 98 -106 321 -342 113 -120 153 -159 158 -158 10 1 122 127 122
136 -1 5 -36 37 -79 72 -330 267 -573 607 -724 1012 -31 83 -81 250 -92 310
-2 11 -6 28 -9 37 -11 37 -34 202 -42 297 -5 70 -5 380 1 440 7 82 21 170 40
270 55 278 186 594 348 840 137 208 361 446 543 577 24 17 44 34 44 37 0 4
-35 43 -78 89 l-79 82 -53 -57z"/>
<path d="M4854 5757 c-5 -8 -34 -42 -64 -74 -91 -96 -92 -81 9 -162 386 -308
659 -722 795 -1206 35 -123 37 -132 62 -270 22 -124 28 -215 28 -415 -1 -159
-7 -272 -18 -338 -23 -127 -32 -171 -53 -252 -71 -277 -176 -511 -342 -760
-123 -185 -298 -377 -463 -507 l-76 -61 69 -73 69 -74 37 41 c21 23 97 104
169 180 73 77 146 155 164 174 18 19 62 67 99 106 173 184 359 381 382 406 14
15 72 78 130 139 57 61 118 126 134 144 40 43 259 276 315 336 25 26 67 72 94
101 27 29 78 85 115 123 36 39 120 128 186 199 66 71 125 134 131 141 13 13
-13 44 -337 387 -44 46 -217 232 -287 307 -19 20 -59 63 -90 96 -129 137 -224
238 -347 369 -149 159 -240 257 -348 371 -41 44 -89 96 -107 115 -55 59 -291
310 -371 394 -62 65 -78 76 -85 63z"/>
<path d="M2557 5415 c-52 -18 -83 -49 -103 -102 -16 -41 -17 -113 -17 -773 l0
-729 24 -47 c61 -118 222 -122 286 -7 19 34 23 60 28 208 9 252 16 312 46 411
82 265 270 487 511 601 149 71 182 78 378 78 153 0 183 -3 241 -22 315 -103
538 -324 643 -635 48 -143 62 -313 41 -501 -9 -84 10 -142 61 -186 58 -51 124
-54 194 -7 70 46 91 131 90 371 0 72 -2 141 -4 155 -2 14 -8 48 -12 75 -9 59
-7 53 -28 130 -150 574 -649 984 -1201 988 -98 0 -220 -9 -235 -18 -3 -2 -23
-6 -44 -9 -65 -11 -212 -63 -297 -107 -109 -56 -219 -136 -306 -222 -72 -71
-73 -71 -74 -42 -4 170 -11 265 -21 290 -18 48 -59 84 -112 100 -27 8 -50 15
-50 15 -1 -1 -18 -7 -39 -15z"/>
<path d="M3518 4966 c-314 -82 -556 -327 -639 -649 -88 -338 4 -681 245 -923
113 -112 229 -179 386 -220 73 -20 105 -23 225 -20 152 3 225 20 353 85 104
52 266 192 313 271 47 76 26 137 -49 147 -61 8 -118 -17 -220 -98 -166 -132
-269 -171 -435 -165 -109 5 -134 9 -207 38 -285 113 -457 432 -405 755 10 63
17 86 48 158 135 314 454 470 762 371 91 -29 138 -57 245 -144 88 -73 128 -94
192 -100 40 -4 50 -1 72 21 54 54 30 115 -93 238 -217 217 -517 306 -793 235z"/>
<path d="M3703 4685 c-12 -9 -22 -23 -21 -33 0 -9 -1 -81 -2 -159 0 -81 3
-151 9 -161 15 -29 37 -33 62 -13 20 16 21 24 20 167 -2 179 -2 184 -27 201
-17 11 -24 10 -41 -2z"/>
<path d="M3495 4547 c-124 -65 -232 -211 -264 -352 -61 -267 82 -541 331 -637
64 -24 196 -31 271 -14 78 18 169 71 233 136 115 116 160 230 158 396 -2 91
-22 172 -64 256 -53 105 -147 193 -249 234 -47 19 -63 15 -87 -20 -27 -43 -12
-70 71 -126 138 -93 197 -199 196 -350 0 -51 -6 -103 -16 -130 -85 -239 -344
-340 -543 -213 -72 45 -97 74 -140 163 -33 67 -36 82 -37 160 0 104 6 137 39
204 33 68 87 124 169 175 53 34 66 47 69 73 4 24 -1 38 -18 55 -30 30 -47 29
-119 -10z"/>
<path d="M3793 4268 c-11 -14 -23 -57 -29 -103 -7 -50 -20 -47 -33 7 -17 67
-36 98 -61 98 -20 0 -31 -27 -50 -132 -6 -29 -12 -64 -15 -78 -3 -14 -8 -45
-11 -70 -3 -25 -6 -54 -8 -65 -7 -45 43 -62 62 -21 10 24 28 115 24 129 -1 4
1 7 6 7 4 0 18 -33 30 -74 36 -115 69 -109 95 16 24 109 36 178 41 230 5 40 2
49 -14 58 -24 13 -25 13 -37 -2z"/>
<path d="M2697 3513 c-134 -30 -236 -147 -252 -287 -7 -54 -10 -1026 -5 -1231
3 -106 20 -155 65 -190 71 -54 152 -48 216 16 30 30 38 47 44 90 4 30 9 298
10 596 3 557 4 573 41 573 7 0 48 -28 91 -62 141 -113 248 -177 388 -230 144
-55 250 -73 440 -72 312 2 604 127 841 359 162 160 202 250 154 349 -12 25
-35 55 -52 67 -32 23 -101 35 -141 25 -13 -3 -73 -56 -133 -117 -177 -180
-292 -252 -474 -299 -128 -33 -323 -33 -445 0 -153 42 -272 113 -427 257 -68
63 -141 124 -162 135 -56 29 -131 37 -199 21z"/>
</g>
</svg>
